<svg xmlns="http://www.w3.org/2000/svg" width="147" height="181" viewBox="0 0 147 181" fill="none">
  <path d="M27.5165 0.753418L0.791138 22.5909" stroke="black" stroke-width="1.4" stroke-linecap="round" stroke-linejoin="round"/>
  <path d="M129.507 140.112C129.507 156.56 116.554 169.858 100.618 169.858C84.6826 169.858 71.7302 156.56 71.7302 140.112C71.7302 123.665 84.6826 110.367 100.618 110.367C116.554 110.367 129.507 123.665 129.507 140.112Z" stroke="black" stroke-width="1.4"/>
  <line y1="-0.7" x2="28.3033" y2="-0.7" transform="matrix(0.696934 0.717136 -0.696934 0.717136 126.274 160.703)" stroke="black" stroke-width="1.4"/>
  <path fill-rule="evenodd" clip-rule="evenodd" d="M27.5162 0.141357C27.1296 0.141357 26.8162 0.454758 26.8162 0.841357V24.5151H0.79082C0.404221 24.5151 0.0908203 24.8285 0.0908203 25.2151V148.995C0.0908203 149.382 0.404221 149.695 0.79082 149.695H111.155C111.541 149.695 111.855 149.382 111.855 148.995L111.855 0.84136C111.855 0.655708 111.781 0.477659 111.65 0.346384C111.519 0.215108 111.341 0.141357 111.155 0.141357H27.5162ZM28.2162 25.2151V1.54136H110.455L110.455 148.295H1.49082V25.9151H27.5162C27.9028 25.9151 28.2162 25.6017 28.2162 25.2151Z" fill="black"/>
</svg>