<svg width="144" height="132" viewBox="0 0 144 132" fill="none" xmlns="http://www.w3.org/2000/svg">
<path d="M142.794 131H1V1H142.794V131Z" stroke="black" stroke-miterlimit="10" stroke-linecap="round" stroke-linejoin="round"/>
<path d="M1.48315 24.0967H142.554" stroke="black" stroke-miterlimit="10" stroke-linecap="round" stroke-linejoin="round"/>
<path d="M96.6521 2.31885V22.9959" stroke="black" stroke-miterlimit="10" stroke-linecap="round" stroke-linejoin="round"/>
<path d="M111.551 12.4385C111.551 16.2498 105.302 16.2498 105.302 12.4385C105.302 8.62403 111.551 8.62403 111.551 12.4385Z" stroke="black" stroke-miterlimit="10" stroke-linecap="round" stroke-linejoin="round"/>
<path d="M122.126 12.4385C122.126 16.2498 115.877 16.2498 115.877 12.4385C115.877 8.62403 122.126 8.62403 122.126 12.4385Z" stroke="black" stroke-miterlimit="10" stroke-linecap="round" stroke-linejoin="round"/>
<path d="M132.46 12.4385C132.46 16.2498 126.214 16.2498 126.214 12.4385C126.214 8.62403 132.46 8.62403 132.46 12.4385Z" stroke="black" stroke-miterlimit="10" stroke-linecap="round" stroke-linejoin="round"/>
<path d="M45.9452 74.6887C45.9452 77.2419 43.6854 79.3071 40.896 79.3071C38.1099 79.3071 35.8501 77.2419 35.8501 74.6887C35.8501 72.1387 38.1099 70.0703 40.896 70.0703C43.6854 70.0703 45.9452 72.1386 45.9452 74.6887Z" stroke="black" stroke-miterlimit="10" stroke-linecap="round" stroke-linejoin="round"/>
<path d="M64.9284 98.885C64.9284 101.435 62.6686 103.503 59.8825 103.503C57.0964 103.503 54.8367 101.435 54.8367 98.885C54.8367 96.3349 57.0964 94.2666 59.8825 94.2666C62.6686 94.2666 64.9284 96.3349 64.9284 98.885Z" stroke="black" stroke-miterlimit="10" stroke-linecap="round" stroke-linejoin="round"/>
<path d="M88.0004 52.475C88.0004 55.0251 85.7406 57.0934 82.9511 57.0934C80.1651 57.0934 77.9053 55.0251 77.9053 52.475C77.9053 49.9219 80.165 47.8535 82.9511 47.8535C85.7406 47.8535 88.0004 49.9218 88.0004 52.475Z" stroke="black" stroke-miterlimit="10" stroke-linecap="round" stroke-linejoin="round"/>
<path d="M108.187 77.1078C108.187 79.6579 105.927 81.7262 103.138 81.7262C100.352 81.7262 98.0918 79.6579 98.0918 77.1078C98.0918 74.5547 100.352 72.4863 103.138 72.4863C105.927 72.4863 108.187 74.5546 108.187 77.1078Z" stroke="black" stroke-miterlimit="10" stroke-linecap="round" stroke-linejoin="round"/>
<path d="M44.0205 79.5278L56.5162 95.3656" stroke="black" stroke-miterlimit="10" stroke-linecap="round" stroke-linejoin="round"/>
<path d="M25.7537 110.323L38.9734 79.5278" stroke="black" stroke-miterlimit="10" stroke-linecap="round" stroke-linejoin="round"/>
<path d="M99.7764 72.0499L87.2773 55.9912" stroke="black" stroke-miterlimit="10" stroke-linecap="round" stroke-linejoin="round"/>
<path d="M118.041 41.0342L104.821 71.8294" stroke="black" stroke-miterlimit="10" stroke-linecap="round" stroke-linejoin="round"/>
<path d="M63.7275 95.8058L80.5483 57.5317" stroke="black" stroke-miterlimit="10" stroke-linecap="round" stroke-linejoin="round"/>
</svg>
