<svg width="152" height="140" viewBox="0 0 152 140" fill="none" xmlns="http://www.w3.org/2000/svg">
<path d="M65.9637 85.8758C47.609 85.8758 32.7441 71.3041 32.7441 53.3119C32.7441 35.3197 47.6093 20.748 65.9637 20.748C74.6105 20.748 82.8011 24.0193 89.0205 29.9668C89.6268 30.5611 89.6268 31.4541 89.0205 32.1968C88.4142 32.7911 87.5032 32.7911 86.7457 32.1968C81.1335 26.8438 73.7005 23.8702 65.8125 23.8702C49.2788 23.8702 35.6266 37.1039 35.6266 53.4602C35.6266 69.817 49.1268 83.0502 65.8125 83.0502C82.3462 83.0502 95.9983 69.8165 95.9983 53.4602C95.9983 51.3785 95.847 49.2968 95.392 47.3635C95.2407 46.4715 95.6957 45.7278 96.6057 45.5795C97.5156 45.4312 98.2743 45.8772 98.4256 46.7692C98.8806 48.9992 99.1843 51.2303 99.1843 53.4601C99.1832 71.3031 84.3181 85.8753 65.9647 85.8753L65.9637 85.8758Z" fill="black"/>
<path d="M65.9634 54.7984C65.3571 54.7984 64.9011 54.5007 64.5985 54.0547C64.1435 53.311 64.4472 52.419 65.2048 51.9731L113.593 25.9517C114.352 25.5057 115.262 25.8034 115.717 26.546C116.172 27.2897 115.868 28.1817 115.11 28.6277L66.7221 54.6501C66.5707 54.7984 66.2671 54.7984 65.9634 54.7984L65.9634 54.7984Z" fill="black"/>
<path d="M128.307 32.3459H127.852L112.532 28.3309L116.628 13.3131C116.779 12.5694 117.69 11.9751 118.6 12.2718C119.359 12.4201 119.965 13.3131 119.663 14.2051L116.326 26.249L128.612 29.5203C129.371 29.6686 129.977 30.5616 129.674 31.4536C129.521 31.8996 128.915 32.3456 128.307 32.3456L128.307 32.3459Z" fill="black"/>
<path d="M139.229 26.2492H138.774L123.453 22.2342L127.548 7.21644C127.699 6.47276 128.61 5.87844 129.52 6.17508C130.279 6.3234 130.885 7.21644 130.583 8.10841L127.246 20.1523L139.532 23.4236C140.291 23.5719 140.897 24.4649 140.594 25.3569C140.593 25.8029 139.987 26.2489 139.228 26.2489L139.229 26.2492Z" fill="black"/>
<path d="M150.302 20.152H149.847L134.527 16.1371L138.623 1.11927C138.774 0.37559 139.685 -0.218733 140.595 0.0779107C141.353 0.22623 141.96 1.11927 141.657 2.01125L138.32 14.0552L150.606 17.3264C151.365 17.4747 151.971 18.3678 151.669 19.2597C151.515 19.7057 150.909 20.1518 150.302 20.1518L150.302 20.152Z" fill="black"/>
<path d="M77.0367 58.2178H76.5817L63.6877 54.5005L66.5701 42.3071C66.7214 41.4151 67.6324 40.9691 68.39 41.1174C69.3 41.2657 69.755 42.1588 69.6036 42.9014L67.4801 52.4178L77.4917 55.2432C78.2504 55.5409 78.8567 56.2846 78.5541 57.1766C78.2493 57.7709 77.643 58.2179 77.0367 58.2179L77.0367 58.2178Z" fill="black"/>
<path d="M65.9638 70.7073C56.2558 70.7073 48.2163 62.975 48.2163 53.3102C48.2163 45.1318 54.1321 37.9947 62.3227 36.3591C63.2327 36.2108 63.9913 36.6568 64.1426 37.5488C64.294 38.4408 63.839 39.1845 62.929 39.3328C56.2545 40.6708 51.2488 46.619 51.2488 53.3103C51.2488 61.191 57.7708 67.5854 65.8113 67.5854C70.2097 67.5854 74.3056 65.652 77.0365 62.3806C77.6428 61.7862 78.5538 61.6369 79.1601 62.2322C79.7664 62.8266 79.9187 63.7196 79.3114 64.3139C76.279 68.3278 71.273 70.7072 65.9637 70.7072L65.9638 70.7073Z" fill="black"/>
<path d="M108.436 138.959C107.677 138.959 107.071 138.513 106.919 137.769L102.368 119.48C99.9405 107.286 104.795 95.6883 109.497 84.3881C111.317 80.0765 112.986 76.2097 114.199 72.1947C117.991 60.1508 118.446 48.2551 115.261 37.8465C114.958 37.1028 115.413 36.2108 116.324 35.9132C117.082 35.6155 117.992 36.0615 118.296 36.9545C121.633 47.9581 121.33 60.4481 117.234 73.0871C115.869 77.2505 114.2 81.2655 112.379 85.5771C107.828 96.4314 103.126 107.583 105.401 118.884L109.952 137.025C110.103 137.917 109.648 138.661 108.738 138.809C108.587 138.958 108.436 138.958 108.436 138.958L108.436 138.959Z" fill="black"/>
<path d="M42.1487 139.999C41.9974 139.999 41.845 139.999 41.6937 139.851C40.9351 139.553 40.4801 138.661 40.6314 137.918C41.845 134.052 41.9963 128.847 40.9351 123.643C40.4801 121.263 38.6602 119.479 36.233 118.884C33.6545 118.29 30.9234 117.992 28.1936 117.992C27.1313 117.992 26.2213 118.14 25.1601 118.14C23.1878 118.289 21.2165 118.438 19.2443 118.14C15.1484 117.694 11.9635 116.059 10.1425 113.381C9.08016 111.597 8.17022 108.623 9.99118 104.163C11.0535 101.783 10.1425 100.297 9.23252 98.6614L8.92885 98.2153C6.5016 93.9038 8.01889 91.5244 9.23252 89.5911C9.83881 88.6991 10.2949 87.8071 10.2949 86.7657C10.2949 85.8737 9.53619 85.13 8.47492 84.9817C5.74509 84.684 3.16531 83.4943 1.49675 81.8586C-0.171868 80.2229 -0.475513 77.547 0.738096 75.6134L2.7093 72.9375C10.5973 60.4475 10.5973 60.4475 12.5685 46.7677C13.0234 44.0918 13.4784 40.671 14.0858 36.5076C15.4507 27.2888 21.2151 18.5151 29.8607 12.2703C38.2038 6.32306 53.069 0.22636 76.8839 4.09186C86.7431 5.72754 94.4799 8.40344 100.699 12.5679C103.733 14.5013 106.464 17.029 108.89 19.7049C109.496 20.2993 109.345 21.3406 108.739 21.9349C107.829 22.382 106.918 22.2326 106.311 21.6383C104.037 19.1106 101.457 16.8796 98.7271 14.9473C92.9627 11.0816 85.5305 8.40456 76.2776 6.91842C53.5244 3.20108 39.4175 9.00007 31.6814 14.6507C23.7934 20.3014 18.4848 28.3306 17.1188 36.8064C16.5126 40.8213 16.0565 44.241 15.6015 47.0665C13.6303 61.3395 13.479 61.4876 5.28732 74.4261L3.46739 77.2515C3.01241 78.1435 3.01241 79.1849 3.77107 79.7792C4.9847 80.9689 6.95705 81.8608 8.92817 82.0092C11.5067 82.3068 13.4791 84.3885 13.4791 86.916C13.4791 88.7001 12.5691 90.0391 11.9618 91.2276C10.8994 93.0116 10.2931 94.0531 11.8105 96.729L12.1141 97.175C13.1765 99.1084 14.6927 101.636 13.0241 105.353C11.9618 107.881 11.9618 110.112 13.0241 111.747C14.2377 113.531 16.5126 114.72 19.6986 115.018C21.5185 115.166 23.1872 115.018 25.0082 115.018C26.0706 115.018 27.1318 114.87 28.1942 114.87C31.0765 114.87 34.11 115.167 36.9921 115.911C40.4806 116.803 43.2116 119.628 43.9703 123.048C45.1839 128.847 45.0326 134.498 43.5153 138.809C43.3619 139.702 42.7545 140 42.1482 140L42.1487 139.999Z" fill="black"/>
</svg>
