<svg width="25" height="24" viewBox="0 0 25 24" fill="none" xmlns="http://www.w3.org/2000/svg">
<path d="M12.5 13.4299C12.9097 13.4299 13.3154 13.3492 13.694 13.1924C14.0725 13.0357 14.4165 12.8058 14.7062 12.5161C14.9959 12.2264 15.2257 11.8824 15.3825 11.5039C15.5393 11.1254 15.62 10.7197 15.62 10.3099C15.62 9.90022 15.5393 9.49451 15.3825 9.11597C15.2257 8.73743 14.9959 8.39349 14.7062 8.10377C14.4165 7.81405 14.0725 7.58423 13.694 7.42744C13.3154 7.27064 12.9097 7.18994 12.5 7.18994C11.6725 7.18994 10.8789 7.51865 10.2938 8.10377C9.70871 8.68888 9.38 9.48247 9.38 10.3099C9.38 11.1374 9.70871 11.931 10.2938 12.5161C10.8789 13.1012 11.6725 13.4299 12.5 13.4299Z" stroke="white" stroke-width="2"/>
<path d="M4.12 8.49C6.09 -0.169998 18.92 -0.159997 20.88 8.5C22.03 13.58 18.87 17.88 16.1 20.54C15.1321 21.4735 13.8398 21.9952 12.495 21.9952C11.1502 21.9952 9.85792 21.4735 8.89 20.54C6.13 17.88 2.97 13.57 4.12 8.49Z" stroke="white" stroke-width="2"/>
</svg>
