<svg width="130" height="127" viewBox="0 0 130 127" fill="none" xmlns="http://www.w3.org/2000/svg">
<path d="M54.7188 126.993C54.6523 126.993 54.5859 126.988 54.5194 126.978C49.9515 126.283 45.4107 125.084 41.0266 123.416C40.6935 123.289 40.4286 123.034 40.2921 122.709C40.1565 122.383 40.1601 122.019 40.3067 121.698C43.2401 115.215 42.7541 108.793 39.1781 106.763C38.4026 106.323 37.5089 106.1 36.5231 106.1C33.0272 106.1 28.6867 108.911 25.4648 113.265C25.2546 113.55 24.9351 113.736 24.581 113.782C24.2233 113.83 23.8684 113.73 23.5908 113.509C19.9649 110.634 16.6428 107.368 13.7175 103.802C13.4927 103.529 13.3926 103.177 13.44 102.828C13.4873 102.48 13.6757 102.165 13.966 101.959C19.7972 97.7854 22.6405 91.9892 20.5801 88.4735C19.4452 86.5444 16.9878 85.4822 13.6594 85.4822C11.0745 85.4822 8.21495 86.1354 5.388 87.3702C5.06217 87.5125 4.69082 87.516 4.35952 87.3845C4.02913 87.2512 3.76976 86.9881 3.64052 86.6624C1.94309 82.3524 0.722696 77.8881 0.0153173 73.3937C-0.0392926 73.0474 0.0535415 72.6931 0.271077 72.4148C0.488612 72.1365 0.813518 71.9594 1.16849 71.9218C8.35039 71.1782 13.7676 67.5561 13.7713 63.4957C13.7686 59.4397 8.34946 55.8159 1.16849 55.0705C0.813541 55.0329 0.488603 54.8548 0.271077 54.5766C0.0535508 54.2983 -0.0392739 53.9458 0.0153173 53.5977C0.72251 49.1051 1.94118 44.6402 3.63865 40.3299C3.76789 40.0024 4.02729 39.7411 4.35766 39.6078C4.68805 39.4745 5.05938 39.4799 5.38613 39.6221C8.21402 40.8587 11.0736 41.5119 13.6594 41.5119C16.9868 41.5119 19.4433 40.4489 20.5782 38.5171C22.6388 35.006 19.7928 29.2105 13.9616 25.0363C13.6722 24.8296 13.4829 24.5155 13.4355 24.1665C13.3882 23.8185 13.4892 23.4659 13.7131 23.193C16.6419 19.6247 19.9658 16.3587 23.5901 13.4855C23.8677 13.2645 24.2217 13.1652 24.5803 13.2126C24.9344 13.2591 25.2538 13.4461 25.4641 13.7298C28.6841 18.082 33.0237 20.8926 36.5205 20.8926C37.5071 20.8926 38.4009 20.6698 39.1771 20.2296C42.7513 18.2011 43.2336 11.781 40.3003 5.2967C40.1555 4.97638 40.1501 4.61041 40.2857 4.28559C40.4213 3.96078 40.688 3.70579 41.0202 3.57873C45.407 1.90995 49.9477 0.711767 54.5158 0.0147262C54.8717 -0.0380661 55.2285 0.0523063 55.5115 0.266169C55.7946 0.480021 55.9757 0.799452 56.0139 1.14843C56.7721 8.21 60.4553 13.5348 64.5838 13.5348C68.7132 13.5348 72.3964 8.21 73.1536 1.14843C73.19 0.799475 73.3712 0.480023 73.6551 0.266169C73.9382 0.0523178 74.2995 -0.0380501 74.6517 0.0147262C79.2206 0.70998 83.7631 1.90897 88.1511 3.57873C88.4851 3.70579 88.75 3.96081 88.8856 4.28559C89.0212 4.61041 89.0185 4.97547 88.8728 5.2967C85.9413 11.7838 86.4236 18.2021 89.995 20.2271C90.7723 20.6682 91.6652 20.8919 92.6517 20.8919C96.1457 20.8919 100.487 18.0813 103.71 13.7318C103.92 13.4482 104.24 13.2612 104.595 13.2164C104.955 13.1699 105.307 13.2701 105.585 13.4893C109.212 16.3677 112.534 19.6337 115.457 23.1968C115.682 23.4697 115.782 23.8214 115.735 24.1703C115.687 24.5193 115.497 24.8325 115.211 25.0392C109.378 29.2143 106.538 35.008 108.6 38.5136C109.735 40.4481 112.191 41.5111 115.519 41.5111C118.101 41.5111 120.962 40.8579 123.786 39.624C124.112 39.4827 124.485 39.4782 124.814 39.6115C125.145 39.7448 125.404 40.007 125.533 40.3336C127.233 44.6473 128.452 49.1131 129.156 53.6042C129.21 53.9522 129.117 54.3048 128.9 54.583C128.682 54.8604 128.358 55.0385 128.003 55.0761C120.818 55.8223 115.404 59.4418 115.408 63.496C115.408 67.5573 120.821 71.1813 128.003 71.9276C128.357 71.9634 128.683 72.1414 128.9 72.4206C129.117 72.6989 129.21 73.0532 129.156 73.4004C128.449 77.8886 127.23 82.3526 125.533 86.6655C125.404 86.9929 125.145 87.2533 124.814 87.3875C124.486 87.5208 124.113 87.5182 123.788 87.375C120.96 86.1411 118.1 85.4897 115.515 85.4897C112.187 85.4897 109.731 86.5518 108.601 88.481C106.539 91.9921 109.38 97.7886 115.207 101.964C115.496 102.172 115.686 102.485 115.731 102.834C115.778 103.182 115.677 103.535 115.453 103.808C112.527 107.375 109.204 110.641 105.58 113.515C105.303 113.736 104.945 113.832 104.59 113.788C104.236 113.742 103.916 113.555 103.705 113.271C100.485 108.92 96.1466 106.108 92.6517 106.108C91.6651 106.108 90.7731 106.333 89.9967 106.774C86.4225 108.8 85.9392 115.218 88.8708 121.704C89.0155 122.024 89.0192 122.39 88.8836 122.715C88.7479 123.04 88.4813 123.295 88.1491 123.422C83.7613 125.093 79.2188 126.291 74.6506 126.984C74.2993 127.04 73.938 126.947 73.6549 126.733C73.3719 126.519 73.1917 126.2 73.1535 125.851C72.3971 118.79 68.7128 113.466 64.5836 113.466C60.4551 113.466 56.771 118.791 56.0137 125.851C55.9755 126.2 55.7944 126.519 55.5113 126.733C55.2847 126.901 55.0044 126.993 54.7186 126.993L54.7188 126.993ZM64.5867 110.893C69.8463 110.893 74.3343 116.425 75.5729 124.227C79.0788 123.617 82.5582 122.697 85.9567 121.484C83.0652 114.118 84.14 107.127 88.6944 104.547C89.8712 103.878 91.2045 103.538 92.6544 103.538C96.7046 103.538 101.333 106.243 104.975 110.677C107.716 108.407 110.263 105.901 112.574 103.206C106.335 98.2482 103.715 91.6663 106.342 87.1958C107.958 84.4391 111.215 82.9206 115.516 82.9206C118.066 82.9206 120.825 83.4673 123.569 84.5062C124.801 81.1669 125.738 77.7442 126.359 74.3002C118.424 73.0789 112.8 68.6648 112.8 63.4939C112.794 58.3283 118.42 53.917 126.36 52.6965C125.739 49.2498 124.804 45.8274 123.57 42.4881C120.828 43.5287 118.069 44.0745 115.52 44.0745C111.22 44.0745 107.961 42.5543 106.342 39.7956C103.712 35.3289 106.333 28.7495 112.577 23.7916C110.268 21.0965 107.72 18.5912 104.979 16.3194C101.333 20.7504 96.7025 23.4552 92.6561 23.4552C91.2053 23.4552 89.872 23.1169 88.6932 22.4467C84.1435 19.867 83.0685 12.8762 85.9602 5.50772C82.5626 4.29529 79.0814 3.37546 75.5727 2.76422C74.334 10.5703 69.8461 16.1001 64.5864 16.1001C59.3268 16.1001 54.8397 10.5703 53.6001 2.76606C50.0942 3.37809 46.613 4.29792 43.2164 5.50955C46.1088 12.8753 45.0349 19.8663 40.4815 22.4513C39.3028 23.1197 37.9714 23.4579 36.5215 23.4579C32.4713 23.4579 27.8405 20.7513 24.1964 16.3185C21.4559 18.5876 18.9066 21.0931 16.5958 23.7889C22.8403 28.7452 25.4634 35.3262 22.8375 39.7975C21.2157 42.557 17.9565 44.0755 13.6586 44.0755C11.1066 44.0755 8.34512 43.5288 5.60204 42.4864C4.37061 45.8238 3.43499 49.2465 2.81237 52.6948C10.7497 53.9144 16.3772 58.3266 16.3798 63.494C16.3762 68.6677 10.7497 73.079 2.81237 74.2958C3.43492 77.7443 4.37054 81.1649 5.60298 84.5026C8.34535 83.4611 11.1047 82.9162 13.6558 82.9162C17.9553 82.9162 21.2145 84.4346 22.8364 87.1905C25.4613 91.6689 22.8391 98.2499 16.5974 103.204C18.9065 105.9 21.4549 108.406 24.1952 110.675C27.8395 106.24 32.4703 103.533 36.5203 103.533C37.9702 103.533 39.3018 103.872 40.4794 104.539C45.0356 107.128 46.1105 114.12 43.218 121.483C46.6119 122.693 50.0914 123.613 53.5973 124.225C54.8397 116.425 59.3286 110.893 64.5864 110.893L64.5867 110.893ZM64.5867 95.3733C46.7088 95.3733 32.1628 81.0746 32.1628 63.4968C32.1628 45.9189 46.7088 31.6203 64.5867 31.6203C82.4664 31.6203 97.0129 45.9207 97.0129 63.4968C97.0129 81.0728 82.4659 95.3733 64.5867 95.3733ZM64.5867 34.1858C48.1466 34.1858 34.7723 47.3354 34.7723 63.4968C34.7723 79.6581 48.1459 92.8077 64.5867 92.8077C81.0283 92.8077 94.4033 79.66 94.4033 63.4968C94.4033 47.3343 81.0279 34.1858 64.5867 34.1858Z" fill="black"/>
</svg>
